<svg version="1" xmlns="http://www.w3.org/2000/svg" width="933.333" height="933.333" viewBox="0 0 700.000000 700.000000"><path d="M83.9.4c-.2.2-2.5.7-5.2 1-2.6.4-5.8 1.1-7.2 1.6-1.4.5-2.5.8-2.5.5 0-.9-13.7 4.8-20 8.2C28.1 23.3 11.8 43 4.6 65.5-.1 80 .1 68.6.1 349.5.1 525.8.5 615.7 1.2 620c4.7 29.6 24.5 56.8 51.3 70.3 4.8 2.4 17.3 6.7 24.5 8.3 1.9.5 123.6.9 270.5 1.1 230.9.2 268 0 274.5-1.3 34.3-6.7 61.8-30 72.6-61.5 5.6-16.7 5.4-.5 5.1-290.4l-.3-267-2.1-7.5c-2.9-10.6-4.8-15.5-9-23-14.2-25.6-39.6-43.3-68.8-47.9C613.8.2 84.8-.5 83.9.4zm467.9 443.8l-.3 107.3-193.4.3c-106.4.1-193.2 0-193-.1.4-.4 27.9-15.8 40.4-22.7 3.3-1.8 17.5-9.7 31.5-17.5 14-7.8 34.1-18.9 44.5-24.7 22.2-12.3 22.7-12.6 45.5-25.3 9.6-5.4 19.5-10.9 22-12.2 2.5-1.4 8.1-4.5 12.5-7 4.4-2.4 8.7-4.8 9.5-5.3 1.8-1 14.9-8.3 23.5-13 3.3-1.8 9.4-5.2 13.5-7.5s9.5-5.3 12-6.7c8.7-4.8 15.6-8.6 24-13.3 4.7-2.6 11-6.1 14-7.8 9.8-5.4 47.3-26.3 53.5-29.7 32.7-18.3 39.1-21.8 39.8-21.9.4-.1.6 48.2.5 107.1z"/></svg>