<svg xmlns="http://www.w3.org/2000/svg" viewBox="0 0 1534.22 1941.65"><defs><style>.a{fill:#fff;}</style></defs><title>dave</title><path class="a" d="M1510.51,82.45c-17,18.24-1.11,32.06-21.56,51.08,26-4.2,38.57,1.71,9.69,19.15,13-12.48,104.85,13.94,98.9-10.31,67.4,60.27,102.54,146.79,152.67,220.08C1670.87,316.61,1578.62,301,1498.05,258c-68.86-36.77-125.63-91.46-189.88-135.14-56.87-38.66-246.44-134.57-194.47,19.49,31.08,92.11,181.43,152.93,260.06,194.92,76.69,41,153.81,82.58,232.73,119.12,25.38,11.75,211.49,47.2,216.16,56.21,95.31-128.16-106.59-342.65-205.53-409q4.19,26-20.55,34.81c-6.89-29.75-17.93-81.28,8.47-105.52q-15.25,6.4-30.94,11.62c58.59-8-18.47-14.6-29.07-9.31,8.69-29.2,23-13.78,39.44-35.81-44.4-3.09-5.28-42.54,2.81-60.26-26.6,35-111.92,26.74-123.54-20.3-9.43-38.2,46.71-53.35,24.39-97.63,109.3,123.66,210.49,233.51,334.54,339.45,46.28,39.53,79.38,91.87,148.38,73.9,53-13.79,92.61-74.33,120.21-117.21,45.26-70.33,134.85-242,66.1-323.4-96.66-114.44-158,58.61-204.39,113.33,85.63-24.14,77.55,24.76,51.95,96-28,77.81-70.27,127.21-142.3,63.6-143.27-126.5-5.8-368.07-145.37-501.09-22.64,18.52,43.83,80.07,12.94,103.1-7.27-20.5-2.47,53.3-4.1,72.13-0.78,8.94-18.31,88.62-18.86,57.75-0.61,13.68-9.94,37.56-10.53-2.11q-3,35.49-6,71c-8-23.73-176.26-225.08-164.84-234-59.64,46.44-27.62-61-22.84-82.89,94.84,62,123.59-151.89,124.82-151.23-0.4-.21-26.6-18.65-17.45-5.11-37-19.48-4.62-67.35,8.65-90-154.9,36.45-184,216.19-188.88,356-43.23-63.25-98.64-23.44-113.46,36.28-16.61,66.94,30.43,87.65,45.75,147,14.34,55.51,3.88,44.93,29.76,86.83,5.08,8.22,91.61,86.44,43.34,94.5q28,6.3,5.65,16.31c5.47-2.09,58.24,21.89,58.85,20.66l1.31-22.73m8.49,42a3.53,3.53,0,0,1,.48-0.12C1509.32,82.07,1509.23,82,1509.82,81.18Zm0.58-.13c0.64-.05.22,0.56-1.79,2.19C1509.29,82.42,1509.9,81.68,1510.4,81Z" transform="translate(-648.23 695.61)"/><path class="a" d="M1557.08,531.71c-120.13-60.35-231.19-155.46-323.64-251.84C1182.32,226.59,1030.67,39.1,951,143.9c-61.72,81.23,66.28,250.94,108.68,313.24,17.86,26.23,44.2,51.83,58.27,80.2-1.23-2.47-16.9,17-8.87,30.56,12.43,21,77.78,58.93,78.44,83.34q-43.71-37.73-11.9,9.11a95.69,95.69,0,0,1,13,62.44c-84.72-118.72-209.37-292-376.88-269.53C656.79,474,606.9,651.9,683.94,774.82c1-23.27,19.24-38.8,37.39-16.47-45.58-88.5-44-270,109.59-246.42-19.36,45.52,169.31,179.13,205.88,221.21,86.3,99.31,147.33,221.14,142.31,355.62C1021.16,978.38,941.94,756.1,737.8,714.69c66.07,23.15-3.72,37.79-2.79,40.9,4.57,53.14,47.65,88.07,70.25,132.49q2.09,11.74-10-5.85c27.71,44,59.41,85.65,96.7,122-5.11,8.66-41.48-19.76-44.35-10.25-42.59,140.68,296.49,313.15,405.4,230.62,120-91,36.13-338-25-441.21,45.43,37.23,139.89,165.66,195.34,89.27C1500,767.17,1286.62,642.22,1240.81,576c91.47-23.55,169.91,47.79,259.25,40,45.31-3.93,141.63-41.86,57-84.36l25.29,12.7-25.29-12.7h0Zm-435.95-140c-3.64-5.81-34.06-70.93-23.51-70.26,53,3.34,126.88,114.67,117.27,146.3-40.05-15-71-39.74-93.75-76l11.16,17.84-11.16-17.84h0Z" transform="translate(-648.23 695.61)"/></svg>