<svg xmlns="http://www.w3.org/2000/svg" viewBox="0 0 1481.44 1966.82"><defs><style>.a{fill:#fff;}</style></defs><title>dave</title><path class="a" d="M2256.59-141.25C2152.7-249.18,2102.73-72.52,2060-14.9c83.89-29.64,79,19.67,58.07,92.46-22.84,79.46-61.87,131.5-137.88,72.7C1829,33.32,1950.5-216.65,1802.6-340.34c-21.39,19.95,48.93,77.06,19.6,102-7.79,22.09-1.08,45.32.58,72.24,1.84,29.85-27.15,128.65-27.15,128.65-22.71-56.52-190.5-213.17-179.67-222.79-56.5,50.21-31.52-59.06-28.17-81.23,98.67,55.76,113.48-159.59,114.74-159-0.41-.19-27.75-16.88-17.75-4-38.23-17-9-66.91,2.79-90.38-152.21,46.42-169.6,227.67-165.39,367.46-47.24-60.31-100-17-110.87,43.56-12.23,67.88,36.06,85.49,55.19,143.69,17.85,54.28,6.86,44.65,35.06,84.34l-0.09,0s124.57,218.54,385.67,408.25c-51.62,2.85-175.22-50.21-258.4-87.91-71.1-32.22-131.3-83.11-198.25-122.53-59.25-34.89-254.65-118.29-192.8,32.06a134.34,134.34,0,0,0,18.28,31c-64.6-49.16-138-83-180.49-18.88-56.32,85.07,82.42,246.11,128.78,305.53,19.52,25,47.47,48.85,63.35,76.25-1.38-2.39-15.76,18-6.86,31.07,13.76,20.18,81.44,53.76,83.68,78.07q-46.06-34.82-11.28,9.86a95.69,95.69,0,0,1,17,61.47c-92.24-113-227.88-277.8-393.57-244.51C803.29,634.83,765,815.56,849.89,933.23c-0.55-23.28,16.68-40,36.25-18.86-51.23-85.35-61.38-266.53,93.37-253-16.37,46.68,180.58,167.77,219.8,207.39,92.56,93.5,161.37,211.12,165.08,345.64-164.77-99.91-258.25-316.57-464.65-344.65,67.44,18.81-1.26,38-.13,41,8,52.73,53.26,84.79,78.69,127.65q2.85,11.58-10.31-5.2c30.5,42.07,64.84,81.62,104.41,115.45-4.53,9-42.67-17-44.92-7.35-33.37,143.15,316.18,293.26,419.51,203.83,113.89-98.57,14.12-339.68-53.56-438.66,47.75,34.2,150.34,156.24,200.72,76.41,69.57-110.22-151.45-221.07-201.45-284.14,89.75-29.43,172.66,36.66,261.3,23.14,45-6.86,138.61-51,51.42-87.88-47.68-20.2-20.48-8.68-.16-0.07-123.73-52.44-240.68-140.1-339.15-230.25-10.53-9.64-25.14-24-42.38-40.22,60.52,38.4,136.78,66,186.14,88.37,79.18,35.89,158.84,72.43,240,103.77C1775.93,565.66,1964,589,1969.2,597.65,2079.8,389.57,1694.25,96.5,1570.88,19.48c-1.72-31.86,42.73-50.88,19.66-90.11,117.09,116.31,225.2,219.36,355.86,317,48.75,36.44,85.18,86.53,152.86,64.11,51.95-17.2,87.59-80.18,112.35-124.76C2252.21,112.63,2330.47-64.49,2256.59-141.25ZM1272.8,538.51l-0.76-1.06Zm1,1.33-0.46-.63Zm-3.86-5.36-0.41-.57Zm1.67,2.32-0.92-1.28Zm-6.46-9-1.08-1.5Zm2.36,3.27-0.65-.9Zm-1.19-1.65-0.08-.11Zm-3.21-4.46,0.24,0.34Zm-1.51-2.1,0.27,0.38Zm12.55,17.43h0Zm-13.1-18.2h0Zm98.79,70.21c-40.94-12.32-73.47-35.05-98.49-69.8-4-5.56-38.59-68.57-28-68.59C1286.35,453.86,1367.34,560.16,1359.8,592.34Z" transform="translate(-805.69 594.78)"/><path class="a" d="M1705.26,633.91l0.16,0.07C1731.73,645.12,1720.41,640.32,1705.26,633.91Z" transform="translate(-805.69 594.78)"/></svg>