<?xml version="1.0" standalone="no"?>
<!DOCTYPE svg PUBLIC "-//W3C//DTD SVG 20010904//EN"
 "http://www.w3.org/TR/2001/REC-SVG-20010904/DTD/svg10.dtd">
<svg version="1.0" xmlns="http://www.w3.org/2000/svg"
 width="700.000000pt" height="700.000000pt" viewBox="0 0 700.000000 700.000000"
 preserveAspectRatio="xMidYMid meet">
<metadata>
Created by potrace 1.11, written by Peter Selinger 2001-2013
</metadata>
<g transform="translate(0.000000,700.000000) scale(0.100000,-0.100000)"
fill="#000000" stroke="none">
<path d="M0 4667 l0 -2333 1153 1 c633 0 1159 -2 1167 -6 13 -6 15 -145 14
-1168 l0 -1161 2333 0 2333 0 0 2333 0 2333 -1167 0 -1167 -1 -1 -1165 0
-1165 -1166 -1 -1165 0 0 1163 c0 812 3 1163 10 1165 6 0 522 2 1146 4 624 1
1144 2 1156 3 l20 1 0 1163 -1 1162 -2332 3 -2333 2 0 -2333z"/>
</g>
</svg>
